<mxfile host="app.diagrams.net" modified="2023-05-20T01:20:55.013Z" agent="Mozilla/5.0 (X11; Linux x86_64) AppleWebKit/537.36 (KHTML, like Gecko) Chrome/113.0.0.0 Safari/537.36" etag="sC_rTlRqEpjNKaKzB9S1" version="21.3.2" type="github">
  <diagram name="0001" id="u5bGN3QoCaFEteD9rDr-">
    <mxGraphModel dx="1420" dy="749" grid="1" gridSize="10" guides="1" tooltips="1" connect="1" arrows="1" fold="1" page="1" pageScale="1" pageWidth="1169" pageHeight="827" math="0" shadow="0">
      <root>
        <mxCell id="C95wEXUyGodqOr3t600D-0" />
        <mxCell id="C95wEXUyGodqOr3t600D-1" parent="C95wEXUyGodqOr3t600D-0" />
        <mxCell id="0QSTGJbYTaC8Y6wXtU2j-4" value="" style="edgeStyle=elbowEdgeStyle;rounded=0;orthogonalLoop=1;jettySize=auto;html=1;elbow=vertical;curved=0;dashed=1;labelBackgroundColor=none;fontColor=default;" parent="C95wEXUyGodqOr3t600D-1" source="C95wEXUyGodqOr3t600D-20" edge="1">
          <mxGeometry relative="1" as="geometry">
            <mxPoint x="1405" y="365.5" as="targetPoint" />
          </mxGeometry>
        </mxCell>
        <mxCell id="0QSTGJbYTaC8Y6wXtU2j-5" value="8、返回登录成功结果，并携带jwt token" style="edgeLabel;html=1;align=center;verticalAlign=middle;resizable=0;points=[];labelBackgroundColor=none;" parent="0QSTGJbYTaC8Y6wXtU2j-4" vertex="1" connectable="0">
          <mxGeometry x="0.1884" y="1" relative="1" as="geometry">
            <mxPoint x="39" y="-12" as="offset" />
          </mxGeometry>
        </mxCell>
        <mxCell id="C95wEXUyGodqOr3t600D-20" value="&lt;b&gt;:SPS-PORTAL-BACK&lt;/b&gt;" style="shape=umlLifeline;perimeter=lifelinePerimeter;whiteSpace=wrap;html=1;container=1;dropTarget=0;collapsible=0;recursiveResize=0;outlineConnect=0;portConstraint=eastwest;newEdgeStyle={&quot;edgeStyle&quot;:&quot;elbowEdgeStyle&quot;,&quot;elbow&quot;:&quot;vertical&quot;,&quot;curved&quot;:0,&quot;rounded&quot;:0};labelBackgroundColor=none;" parent="C95wEXUyGodqOr3t600D-1" vertex="1">
          <mxGeometry x="1681" y="81" width="240" height="800" as="geometry" />
        </mxCell>
        <mxCell id="C95wEXUyGodqOr3t600D-22" value="" style="html=1;align=left;spacingLeft=2;endArrow=block;rounded=0;edgeStyle=orthogonalEdgeStyle;curved=0;rounded=0;labelBackgroundColor=none;fontColor=default;" parent="C95wEXUyGodqOr3t600D-20" source="C95wEXUyGodqOr3t600D-21" target="C95wEXUyGodqOr3t600D-21" edge="1">
          <mxGeometry relative="1" as="geometry">
            <mxPoint x="90" y="170" as="sourcePoint" />
            <Array as="points">
              <mxPoint x="189" y="210" />
              <mxPoint x="189" y="230" />
            </Array>
          </mxGeometry>
        </mxCell>
        <mxCell id="sXjMgk0Dx2N-fdSx5eJa-0" value="6、鉴权" style="edgeLabel;html=1;align=center;verticalAlign=middle;resizable=0;points=[];labelBackgroundColor=none;" vertex="1" connectable="0" parent="C95wEXUyGodqOr3t600D-22">
          <mxGeometry x="-0.4054" relative="1" as="geometry">
            <mxPoint x="45" y="8" as="offset" />
          </mxGeometry>
        </mxCell>
        <mxCell id="C95wEXUyGodqOr3t600D-23" value="7、鉴权成功，生成jwt token" style="html=1;align=left;spacingLeft=2;endArrow=block;rounded=0;edgeStyle=orthogonalEdgeStyle;curved=0;rounded=0;labelBackgroundColor=none;fontColor=default;" parent="C95wEXUyGodqOr3t600D-20" edge="1">
          <mxGeometry relative="1" as="geometry">
            <mxPoint x="125" y="241" as="sourcePoint" />
            <Array as="points">
              <mxPoint x="190" y="241" />
              <mxPoint x="190" y="261" />
            </Array>
            <mxPoint x="125" y="261" as="targetPoint" />
          </mxGeometry>
        </mxCell>
        <mxCell id="C95wEXUyGodqOr3t600D-21" value="" style="html=1;points=[];perimeter=orthogonalPerimeter;outlineConnect=0;targetShapes=umlLifeline;portConstraint=eastwest;newEdgeStyle={&quot;edgeStyle&quot;:&quot;elbowEdgeStyle&quot;,&quot;elbow&quot;:&quot;vertical&quot;,&quot;curved&quot;:0,&quot;rounded&quot;:0};labelBackgroundColor=none;" parent="C95wEXUyGodqOr3t600D-20" vertex="1">
          <mxGeometry x="115" y="180" width="10" height="120" as="geometry" />
        </mxCell>
        <mxCell id="0QSTGJbYTaC8Y6wXtU2j-22" value="" style="edgeStyle=elbowEdgeStyle;rounded=0;orthogonalLoop=1;jettySize=auto;html=1;elbow=vertical;curved=0;dashed=1;labelBackgroundColor=none;fontColor=default;" parent="C95wEXUyGodqOr3t600D-1" source="C95wEXUyGodqOr3t600D-16" edge="1">
          <mxGeometry relative="1" as="geometry">
            <mxPoint x="1005" y="464" as="targetPoint" />
          </mxGeometry>
        </mxCell>
        <mxCell id="0QSTGJbYTaC8Y6wXtU2j-23" value="12、返回账号jwt token有效性验证结果" style="edgeLabel;html=1;align=center;verticalAlign=middle;resizable=0;points=[];labelBackgroundColor=none;" parent="0QSTGJbYTaC8Y6wXtU2j-22" vertex="1" connectable="0">
          <mxGeometry x="0.128" y="2" relative="1" as="geometry">
            <mxPoint x="26" y="-13" as="offset" />
          </mxGeometry>
        </mxCell>
        <mxCell id="0QSTGJbYTaC8Y6wXtU2j-25" value="" style="edgeStyle=elbowEdgeStyle;rounded=0;orthogonalLoop=1;jettySize=auto;html=1;elbow=vertical;curved=0;dashed=1;labelBackgroundColor=none;fontColor=default;" parent="C95wEXUyGodqOr3t600D-1" source="C95wEXUyGodqOr3t600D-16" edge="1">
          <mxGeometry relative="1" as="geometry">
            <mxPoint x="606" y="379" as="targetPoint" />
          </mxGeometry>
        </mxCell>
        <mxCell id="0QSTGJbYTaC8Y6wXtU2j-26" value="9、浏览器携带jwt token自动跳转到商城系统管理端首页" style="edgeLabel;html=1;align=center;verticalAlign=middle;resizable=0;points=[];labelBackgroundColor=none;" parent="0QSTGJbYTaC8Y6wXtU2j-25" vertex="1" connectable="0">
          <mxGeometry x="-0.1645" y="-4" relative="1" as="geometry">
            <mxPoint x="-69" y="-12" as="offset" />
          </mxGeometry>
        </mxCell>
        <mxCell id="C95wEXUyGodqOr3t600D-16" value="&lt;b&gt;:SPS-PORTAL-WEB&lt;/b&gt;" style="shape=umlLifeline;perimeter=lifelinePerimeter;whiteSpace=wrap;html=1;container=1;dropTarget=0;collapsible=0;recursiveResize=0;outlineConnect=0;portConstraint=eastwest;newEdgeStyle={&quot;edgeStyle&quot;:&quot;elbowEdgeStyle&quot;,&quot;elbow&quot;:&quot;vertical&quot;,&quot;curved&quot;:0,&quot;rounded&quot;:0};labelBackgroundColor=none;" parent="C95wEXUyGodqOr3t600D-1" vertex="1">
          <mxGeometry x="1280" y="81" width="240" height="800" as="geometry" />
        </mxCell>
        <mxCell id="C95wEXUyGodqOr3t600D-17" value="" style="html=1;points=[];perimeter=orthogonalPerimeter;outlineConnect=0;targetShapes=umlLifeline;portConstraint=eastwest;newEdgeStyle={&quot;edgeStyle&quot;:&quot;elbowEdgeStyle&quot;,&quot;elbow&quot;:&quot;vertical&quot;,&quot;curved&quot;:0,&quot;rounded&quot;:0};labelBackgroundColor=none;" parent="C95wEXUyGodqOr3t600D-16" vertex="1">
          <mxGeometry x="115" y="140" width="10" height="170" as="geometry" />
        </mxCell>
        <mxCell id="0QSTGJbYTaC8Y6wXtU2j-14" value="" style="edgeStyle=elbowEdgeStyle;rounded=0;orthogonalLoop=1;jettySize=auto;html=1;elbow=vertical;curved=0;dashed=1;labelBackgroundColor=none;fontColor=default;" parent="C95wEXUyGodqOr3t600D-1" source="C95wEXUyGodqOr3t600D-28" edge="1">
          <mxGeometry relative="1" as="geometry">
            <mxPoint x="606" y="560" as="targetPoint" />
          </mxGeometry>
        </mxCell>
        <mxCell id="0QSTGJbYTaC8Y6wXtU2j-17" value="14、返回账号详情信息" style="edgeLabel;html=1;align=center;verticalAlign=middle;resizable=0;points=[];labelBackgroundColor=none;" parent="0QSTGJbYTaC8Y6wXtU2j-14" vertex="1" connectable="0">
          <mxGeometry x="0.1105" y="1" relative="1" as="geometry">
            <mxPoint x="20" y="-13" as="offset" />
          </mxGeometry>
        </mxCell>
        <mxCell id="0QSTGJbYTaC8Y6wXtU2j-19" value="" style="edgeStyle=elbowEdgeStyle;rounded=0;orthogonalLoop=1;jettySize=auto;html=1;elbow=vertical;curved=0;labelBackgroundColor=none;fontColor=default;" parent="C95wEXUyGodqOr3t600D-1" source="C95wEXUyGodqOr3t600D-28" edge="1">
          <mxGeometry relative="1" as="geometry">
            <mxPoint x="1396" y="432" as="targetPoint" />
          </mxGeometry>
        </mxCell>
        <mxCell id="0QSTGJbYTaC8Y6wXtU2j-20" value="11、验证jwt token有效性" style="edgeLabel;html=1;align=center;verticalAlign=middle;resizable=0;points=[];labelBackgroundColor=none;" parent="0QSTGJbYTaC8Y6wXtU2j-19" vertex="1" connectable="0">
          <mxGeometry x="-0.0139" y="-3" relative="1" as="geometry">
            <mxPoint x="1" y="-19" as="offset" />
          </mxGeometry>
        </mxCell>
        <mxCell id="C95wEXUyGodqOr3t600D-28" value="&lt;b&gt;:MALL-CONSOLE-BACK&lt;/b&gt;" style="shape=umlLifeline;perimeter=lifelinePerimeter;whiteSpace=wrap;html=1;container=1;dropTarget=0;collapsible=0;recursiveResize=0;outlineConnect=0;portConstraint=eastwest;newEdgeStyle={&quot;edgeStyle&quot;:&quot;elbowEdgeStyle&quot;,&quot;elbow&quot;:&quot;vertical&quot;,&quot;curved&quot;:0,&quot;rounded&quot;:0};labelBackgroundColor=none;" parent="C95wEXUyGodqOr3t600D-1" vertex="1">
          <mxGeometry x="880" y="81" width="240" height="800" as="geometry" />
        </mxCell>
        <mxCell id="X04YHawdPwbHhBIBYi1X-3" value="" style="edgeStyle=orthogonalEdgeStyle;rounded=0;orthogonalLoop=1;jettySize=auto;html=1;elbow=vertical;labelBackgroundColor=none;fontColor=default;" parent="C95wEXUyGodqOr3t600D-28" edge="1">
          <mxGeometry relative="1" as="geometry">
            <mxPoint x="115" y="428" as="sourcePoint" />
            <mxPoint x="115" y="461" as="targetPoint" />
            <Array as="points">
              <mxPoint x="115" y="409" />
              <mxPoint x="192" y="409" />
              <mxPoint x="192" y="461" />
            </Array>
          </mxGeometry>
        </mxCell>
        <mxCell id="X04YHawdPwbHhBIBYi1X-4" value="13、解析jwt token,取出账号相关信息" style="edgeLabel;html=1;align=center;verticalAlign=middle;resizable=0;points=[];labelBackgroundColor=none;" parent="X04YHawdPwbHhBIBYi1X-3" vertex="1" connectable="0">
          <mxGeometry x="-0.1121" y="1" relative="1" as="geometry">
            <mxPoint x="96" y="21" as="offset" />
          </mxGeometry>
        </mxCell>
        <mxCell id="C95wEXUyGodqOr3t600D-29" value="" style="html=1;points=[];perimeter=orthogonalPerimeter;outlineConnect=0;targetShapes=umlLifeline;portConstraint=eastwest;newEdgeStyle={&quot;edgeStyle&quot;:&quot;elbowEdgeStyle&quot;,&quot;elbow&quot;:&quot;vertical&quot;,&quot;curved&quot;:0,&quot;rounded&quot;:0};labelBackgroundColor=none;" parent="C95wEXUyGodqOr3t600D-28" vertex="1">
          <mxGeometry x="115" y="320" width="10" height="170" as="geometry" />
        </mxCell>
        <mxCell id="C95wEXUyGodqOr3t600D-30" value="" style="html=1;points=[];perimeter=orthogonalPerimeter;outlineConnect=0;targetShapes=umlLifeline;portConstraint=eastwest;newEdgeStyle={&quot;edgeStyle&quot;:&quot;elbowEdgeStyle&quot;,&quot;elbow&quot;:&quot;vertical&quot;,&quot;curved&quot;:0,&quot;rounded&quot;:0};labelBackgroundColor=none;" parent="C95wEXUyGodqOr3t600D-28" vertex="1">
          <mxGeometry x="515" y="340" width="10" height="50" as="geometry" />
        </mxCell>
        <mxCell id="C95wEXUyGodqOr3t600D-18" value="" style="edgeStyle=elbowEdgeStyle;rounded=0;orthogonalLoop=1;jettySize=auto;html=1;elbow=vertical;curved=0;labelBackgroundColor=none;fontColor=default;" parent="C95wEXUyGodqOr3t600D-1" source="C95wEXUyGodqOr3t600D-5" target="C95wEXUyGodqOr3t600D-17" edge="1">
          <mxGeometry relative="1" as="geometry">
            <mxPoint x="478" y="261" as="sourcePoint" />
            <mxPoint x="878" y="261" as="targetPoint" />
            <Array as="points">
              <mxPoint x="578" y="261" />
            </Array>
          </mxGeometry>
        </mxCell>
        <mxCell id="C95wEXUyGodqOr3t600D-19" value="4、选择采购方，输入用户名、密码，点击登录按钮" style="edgeLabel;html=1;align=center;verticalAlign=middle;resizable=0;points=[];labelBackgroundColor=none;" parent="C95wEXUyGodqOr3t600D-18" vertex="1" connectable="0">
          <mxGeometry x="-0.0718" y="-1" relative="1" as="geometry">
            <mxPoint x="90" y="-12" as="offset" />
          </mxGeometry>
        </mxCell>
        <mxCell id="0QSTGJbYTaC8Y6wXtU2j-1" value="" style="edgeStyle=elbowEdgeStyle;rounded=0;orthogonalLoop=1;jettySize=auto;html=1;elbow=vertical;curved=0;labelBackgroundColor=none;fontColor=default;" parent="C95wEXUyGodqOr3t600D-1" source="C95wEXUyGodqOr3t600D-16" edge="1">
          <mxGeometry relative="1" as="geometry">
            <mxPoint x="1796" y="280" as="targetPoint" />
          </mxGeometry>
        </mxCell>
        <mxCell id="0QSTGJbYTaC8Y6wXtU2j-2" value="5、登录" style="edgeLabel;html=1;align=center;verticalAlign=middle;resizable=0;points=[];labelBackgroundColor=none;" parent="0QSTGJbYTaC8Y6wXtU2j-1" vertex="1" connectable="0">
          <mxGeometry x="-0.096" relative="1" as="geometry">
            <mxPoint y="-10" as="offset" />
          </mxGeometry>
        </mxCell>
        <mxCell id="0QSTGJbYTaC8Y6wXtU2j-7" value="" style="edgeStyle=elbowEdgeStyle;rounded=0;orthogonalLoop=1;jettySize=auto;html=1;elbow=vertical;curved=0;labelBackgroundColor=none;fontColor=default;" parent="C95wEXUyGodqOr3t600D-1" source="C95wEXUyGodqOr3t600D-4" edge="1">
          <mxGeometry relative="1" as="geometry">
            <mxPoint x="596" y="176.5" as="targetPoint" />
          </mxGeometry>
        </mxCell>
        <mxCell id="C95wEXUyGodqOr3t600D-4" value="&lt;b&gt;:采购方&lt;/b&gt;" style="shape=umlLifeline;perimeter=lifelinePerimeter;whiteSpace=wrap;html=1;container=1;dropTarget=0;collapsible=0;recursiveResize=0;outlineConnect=0;portConstraint=eastwest;newEdgeStyle={&quot;edgeStyle&quot;:&quot;elbowEdgeStyle&quot;,&quot;elbow&quot;:&quot;vertical&quot;,&quot;curved&quot;:0,&quot;rounded&quot;:0};labelBackgroundColor=none;" parent="C95wEXUyGodqOr3t600D-1" vertex="1">
          <mxGeometry x="81" y="81" width="240" height="800" as="geometry" />
        </mxCell>
        <mxCell id="C95wEXUyGodqOr3t600D-5" value="" style="html=1;points=[];perimeter=orthogonalPerimeter;outlineConnect=0;targetShapes=umlLifeline;portConstraint=eastwest;newEdgeStyle={&quot;edgeStyle&quot;:&quot;elbowEdgeStyle&quot;,&quot;elbow&quot;:&quot;vertical&quot;,&quot;curved&quot;:0,&quot;rounded&quot;:0};labelBackgroundColor=none;" parent="C95wEXUyGodqOr3t600D-4" vertex="1">
          <mxGeometry x="115" y="80" width="10" height="450" as="geometry" />
        </mxCell>
        <mxCell id="C95wEXUyGodqOr3t600D-6" value="" style="edgeStyle=elbowEdgeStyle;rounded=0;orthogonalLoop=1;jettySize=auto;html=1;elbow=vertical;curved=0;labelBackgroundColor=none;fontColor=default;" parent="C95wEXUyGodqOr3t600D-1" source="C95wEXUyGodqOr3t600D-11" target="C95wEXUyGodqOr3t600D-17" edge="1">
          <mxGeometry relative="1" as="geometry">
            <mxPoint x="687" y="231" as="sourcePoint" />
            <mxPoint x="878" y="231" as="targetPoint" />
            <Array as="points">
              <mxPoint x="788" y="231" />
            </Array>
          </mxGeometry>
        </mxCell>
        <mxCell id="C95wEXUyGodqOr3t600D-7" value="3、浏览器跳转到SPS门户登录页" style="edgeLabel;html=1;align=center;verticalAlign=middle;resizable=0;points=[];labelBackgroundColor=none;" parent="C95wEXUyGodqOr3t600D-6" vertex="1" connectable="0">
          <mxGeometry x="-0.1161" relative="1" as="geometry">
            <mxPoint x="29" y="-18" as="offset" />
          </mxGeometry>
        </mxCell>
        <mxCell id="C95wEXUyGodqOr3t600D-8" value="" style="edgeStyle=elbowEdgeStyle;rounded=0;orthogonalLoop=1;jettySize=auto;html=1;elbow=vertical;curved=0;labelBackgroundColor=none;fontColor=default;" parent="C95wEXUyGodqOr3t600D-1" source="C95wEXUyGodqOr3t600D-11" target="C95wEXUyGodqOr3t600D-29" edge="1">
          <mxGeometry relative="1" as="geometry">
            <mxPoint x="925.5" y="481" as="targetPoint" />
            <Array as="points">
              <mxPoint x="807" y="411" />
            </Array>
          </mxGeometry>
        </mxCell>
        <mxCell id="C95wEXUyGodqOr3t600D-9" value="10、携带jwt token获取账号详情信息" style="edgeLabel;html=1;align=center;verticalAlign=middle;resizable=0;points=[];labelBackgroundColor=none;" parent="C95wEXUyGodqOr3t600D-8" vertex="1" connectable="0">
          <mxGeometry x="-0.0451" y="-1" relative="1" as="geometry">
            <mxPoint y="-12" as="offset" />
          </mxGeometry>
        </mxCell>
        <mxCell id="0QSTGJbYTaC8Y6wXtU2j-11" value="" style="edgeStyle=elbowEdgeStyle;rounded=0;orthogonalLoop=1;jettySize=auto;html=1;elbow=vertical;curved=0;dashed=1;labelBackgroundColor=none;fontColor=default;" parent="C95wEXUyGodqOr3t600D-1" source="C95wEXUyGodqOr3t600D-10" edge="1">
          <mxGeometry relative="1" as="geometry">
            <mxPoint x="205" y="580" as="targetPoint" />
          </mxGeometry>
        </mxCell>
        <mxCell id="0QSTGJbYTaC8Y6wXtU2j-12" value="15、呈现登录成功页面" style="edgeLabel;html=1;align=center;verticalAlign=middle;resizable=0;points=[];labelBackgroundColor=none;" parent="0QSTGJbYTaC8Y6wXtU2j-11" vertex="1" connectable="0">
          <mxGeometry x="0.1606" y="2" relative="1" as="geometry">
            <mxPoint x="40" y="-19" as="offset" />
          </mxGeometry>
        </mxCell>
        <mxCell id="C95wEXUyGodqOr3t600D-10" value="&lt;b&gt;:MALL-CONSOLE-WEB&lt;/b&gt;" style="shape=umlLifeline;perimeter=lifelinePerimeter;whiteSpace=wrap;html=1;container=1;dropTarget=0;collapsible=0;recursiveResize=0;outlineConnect=0;portConstraint=eastwest;newEdgeStyle={&quot;edgeStyle&quot;:&quot;elbowEdgeStyle&quot;,&quot;elbow&quot;:&quot;vertical&quot;,&quot;curved&quot;:0,&quot;rounded&quot;:0};labelBackgroundColor=none;" parent="C95wEXUyGodqOr3t600D-1" vertex="1">
          <mxGeometry x="481" y="81" width="240" height="800" as="geometry" />
        </mxCell>
        <mxCell id="C95wEXUyGodqOr3t600D-11" value="" style="html=1;points=[];perimeter=orthogonalPerimeter;outlineConnect=0;targetShapes=umlLifeline;portConstraint=eastwest;newEdgeStyle={&quot;edgeStyle&quot;:&quot;elbowEdgeStyle&quot;,&quot;elbow&quot;:&quot;vertical&quot;,&quot;curved&quot;:0,&quot;rounded&quot;:0};labelBackgroundColor=none;" parent="C95wEXUyGodqOr3t600D-10" vertex="1">
          <mxGeometry x="115" y="90" width="10" height="420" as="geometry" />
        </mxCell>
        <mxCell id="C95wEXUyGodqOr3t600D-12" value="" style="edgeStyle=elbowEdgeStyle;rounded=0;orthogonalLoop=1;jettySize=auto;html=1;elbow=vertical;curved=0;labelBackgroundColor=none;fontColor=default;" parent="C95wEXUyGodqOr3t600D-1" source="C95wEXUyGodqOr3t600D-5" target="C95wEXUyGodqOr3t600D-11" edge="1">
          <mxGeometry relative="1" as="geometry">
            <Array as="points">
              <mxPoint x="568" y="221" />
            </Array>
          </mxGeometry>
        </mxCell>
        <mxCell id="C95wEXUyGodqOr3t600D-13" value="2、点击登录按钮" style="edgeLabel;html=1;align=center;verticalAlign=middle;resizable=0;points=[];labelBackgroundColor=none;" parent="C95wEXUyGodqOr3t600D-12" vertex="1" connectable="0">
          <mxGeometry x="0.0526" y="1" relative="1" as="geometry">
            <mxPoint x="-21" y="-11" as="offset" />
          </mxGeometry>
        </mxCell>
        <mxCell id="xv07PcUZ0-pIoEmmyfEZ-0" value="&lt;b style=&quot;font-size: 16px;&quot;&gt;从商城系统登录交互逻辑&lt;/b&gt;" style="text;html=1;align=left;verticalAlign=middle;resizable=0;points=[];autosize=1;strokeColor=none;fillColor=none;fontSize=16;labelBackgroundColor=none;" parent="C95wEXUyGodqOr3t600D-1" vertex="1">
          <mxGeometry x="81" y="23" width="200" height="30" as="geometry" />
        </mxCell>
        <mxCell id="0QSTGJbYTaC8Y6wXtU2j-8" value="" style="edgeStyle=elbowEdgeStyle;rounded=0;orthogonalLoop=1;jettySize=auto;html=1;elbow=vertical;curved=0;labelBackgroundColor=none;fontColor=default;" parent="C95wEXUyGodqOr3t600D-1" source="C95wEXUyGodqOr3t600D-5" edge="1">
          <mxGeometry relative="1" as="geometry">
            <mxPoint x="206" y="181" as="sourcePoint" />
            <mxPoint x="596" y="176.5" as="targetPoint" />
            <Array as="points" />
          </mxGeometry>
        </mxCell>
        <mxCell id="0QSTGJbYTaC8Y6wXtU2j-9" value="1、打开管理端页面" style="edgeLabel;html=1;align=center;verticalAlign=middle;resizable=0;points=[];labelBackgroundColor=none;" parent="0QSTGJbYTaC8Y6wXtU2j-8" vertex="1" connectable="0">
          <mxGeometry x="-0.0239" y="-1" relative="1" as="geometry">
            <mxPoint y="-11" as="offset" />
          </mxGeometry>
        </mxCell>
      </root>
    </mxGraphModel>
  </diagram>
</mxfile>
